<svg width="56" height="51" fill="none" xmlns="http://www.w3.org/2000/svg"><path d="M55.901 26.854l-1.826-3.652-.816-2.937 2.325-1.55a.933.933 0 00.388-1.003l-2.8-11.2a.933.933 0 00-.905-.707h-3.423L41.627.392a.933.933 0 00-.56-.187h-2.8a.934.934 0 00-.835 1.35l.142.286-8.125 4.063-5.6 2.8a.933.933 0 00-.516.834v3.046l-5.098 2.66c-.153.08-.28.2-.369.348L9.738 29.138H.933a.933.933 0 00-.933.934v12.133a.933.933 0 00.933.933h4.67a4.664 4.664 0 003.73 7.467h22.4a4.667 4.667 0 000-9.333h-7.466v-.934h2.8a.934.934 0 00.776-.415l1.867-2.8a.934.934 0 00.157-.518V23.538a.934.934 0 00-.934-.933h-1.866v-2.351L39.933 9.96l9.34 13.586-3.383 5.074a.933.933 0 00-.157.517v2.334l-3.36 2.52a.932.932 0 00-.373.746v1.867a.933.933 0 00.933.933h7.865a5.208 5.208 0 005.202-5.2v-5.065a.931.931 0 00-.099-.418zm-3.167-8.482l-.984-3.542 1.485-.371.767 3.068-1.268.845zm.048-5.724l-1.532.383-1.489-5.36h1.777l1.244 4.977zM40.756 2.072l6.963 5.222 4.253 15.311h-1.081l-9.824-14.29V4.872a.93.93 0 00-.1-.417h.001l-1.191-2.383h.978zm-1.868 2.397l-7.491 3.908-.389-1.166 7.401-3.7.48.958zM25.2 10.115l4.122-2.06.399 1.197L25.2 11.61v-1.495zm-10.465 20.89l7.665 3.407v3.126H1.867v-6.533h12.868zm2.496-.933l-.873-.389 3.722-5.211h1.387v5.6H17.23zm17.302 15.866a2.803 2.803 0 01-2.8 2.8h-22.4a2.8 2.8 0 010-5.6h22.4a2.803 2.803 0 012.8 2.8zM1.867 41.272v-1.867H22.4v1.867H1.867zm24.7-2.8h-2.3v-4.667a.933.933 0 00-.555-.853l-2.28-1.014H28v4.384l-1.433 2.15zm1.433-8.4h-4.667v-5.6H28v5.6zM39.2 8.156l-13.65 10.92a.932.932 0 00-.35.73v2.8h-5.6a.933.933 0 00-.76.39l-4.387 6.142h-2.538l7.417-12.36L39.2 6.41v1.745zm14.933 24.18a3.339 3.339 0 01-3.335 3.336h-6.931v-.467l3.36-2.52a.933.933 0 00.373-.747v-2.517l3.3-4.95h1.723l1.51 3.021v4.845z" fill="#fff"/><path d="M28.933 45.005h-16.8v1.867h16.8v-1.867zm-19.6 1.867a.933.933 0 100-1.867.933.933 0 000 1.867zm22.4 0a.933.933 0 100-1.867.933.933 0 000 1.867z" fill="#fff"/></svg>