<svg width="55" height="56" fill="none" xmlns="http://www.w3.org/2000/svg"><path d="M22.334 5.6a.933.933 0 100-1.867.933.933 0 000 1.867z" fill="#fff"/><path d="M20.467 54.133H4.6a1.869 1.869 0 01-1.867-1.866V9.333A1.869 1.869 0 014.6 7.467h8.52l-2.354 1.008a.933.933 0 00-.566.858H5.533a.933.933 0 00-.933.934v41.066a.933.933 0 00.933.934h14.934V50.4h-14V11.2H10.2v.933a.933.933 0 00.933.934h22.4a.933.933 0 00.934-.934V11.2H38.2v21.467h1.867v-22.4a.933.933 0 00-.934-.934h-4.666a.933.933 0 00-.566-.858l-2.354-1.008h8.52a1.869 1.869 0 011.866 1.866V33.6H43.8V9.333A3.737 3.737 0 0040.067 5.6H27.933V3.733a.934.934 0 00-.273-.66l-1.48-1.48a5.44 5.44 0 00-7.693 0l-1.48 1.48a.934.934 0 00-.274.66V5.6H4.6A3.738 3.738 0 00.867 9.333v42.934A3.737 3.737 0 004.6 56h15.867v-1.867zM18.6 6.533V4.12l1.207-1.207a3.573 3.573 0 015.053 0l1.207 1.207v2.413a.934.934 0 00.565.858L32.6 9.95v1.25H12.067V9.949l5.967-2.558a.934.934 0 00.566-.858z" fill="#fff"/><path d="M54.547 52.4l-4.214-2.528v-3.205a11.213 11.213 0 00-11.2-11.2h-5.6a11.213 11.213 0 00-11.2 11.2v8.4a.934.934 0 00.934.933h30.8a.934.934 0 00.933-.933V53.2a.933.933 0 00-.453-.8zM24.2 46.667a9.344 9.344 0 019.333-9.334h5.6a9.344 9.344 0 019.334 9.334v2.8H46.6V47.6a8.41 8.41 0 00-8.4-8.4h-2.8v1.867h2.8a6.541 6.541 0 015.902 3.733H29.8a.933.933 0 00-.8.453l-2.529 4.214H24.2v-2.8zm20.533.933v1.867H28.648l1.68-2.8h14.338c.044.309.067.62.067.933zm8.4 6.533H24.2v-2.8h24.94l3.992 2.395v.405z" fill="#fff"/><path d="M25.133 34.533h5.6a3.737 3.737 0 003.734-3.733v-.934a.934.934 0 00.834-.515l1.867-3.734a.934.934 0 00-.835-1.35h-1.866v-2.8a3.738 3.738 0 00-3.734-3.734H26.84a2.805 2.805 0 00-2.64-1.867h-3.732a2.8 2.8 0 000 5.6H24.2a2.805 2.805 0 002.64-1.866h3.893a1.87 1.87 0 011.867 1.866v2.8h-1.867a.932.932 0 00-.835.516l-.675 1.351h-2.845l-3.485-2.613a.933.933 0 00-1.12 0l-3.484 2.613h-1.556V25.2a.934.934 0 00-.933-.933h-5.6a.933.933 0 00-.933.933v3.733a.933.933 0 00.933.933h1.867v6.41a1.917 1.917 0 01-.67.124H10.2a.933.933 0 00-.933.933v3.733A.933.933 0 0010.2 42h5.6a.933.933 0 00.933-.934v-.933h2.027A2.804 2.804 0 0021.4 42h.933v-1.867H21.4a.933.933 0 110-1.867h2.8V36.4h-2.8a2.804 2.804 0 00-2.64 1.867h-2.027v-.934a.934.934 0 00-.516-.835l-.598-.299a3.771 3.771 0 00-1.686-.396v-5.936H15.8a.933.933 0 00.933-.934V28h1.556l3.11 2.333v.467a3.738 3.738 0 003.734 3.733zM24.2 19.6h-3.733a.933.933 0 010-1.867H24.2a.933.933 0 010 1.867zm-9.416 18.269l.083.041v2.223h-3.734v-1.867h.264c.585 0 1.162-.136 1.686-.397a1.911 1.911 0 011.7 0zm.083-9.87h-3.734v-1.866h3.734V28zm16.443-1.866h3.513L33.89 28h-3.513l.933-1.867zm-3.237 3.29a.932.932 0 00.794.444H32.6v.933a1.869 1.869 0 01-1.867 1.866h-5.6a1.87 1.87 0 01-1.866-1.866v-.467L26.377 28h1.913l-.258.516a.934.934 0 00.04.908zm-5.74-3.99l2.178 1.634-2.178 1.633-2.177-1.633 2.177-1.634z" fill="#fff"/></svg>