<svg width="56" height="56" fill="none" xmlns="http://www.w3.org/2000/svg"><g clip-path="url(#clip0_88_187)" fill="#fff"><path d="M40 12.9a1 1 0 100-2 1 1 0 000 2zm5-1a1 1 0 11-2 0 1 1 0 012 0zm3 1a1 1 0 100-2 1 1 0 000 2zm-7 3a1 1 0 11-2 0 1 1 0 012 0zm3 1a1 1 0 100-2 1 1 0 000 2z"/><path fill-rule="evenodd" clip-rule="evenodd" d="M41 .9a1 1 0 10-2 0v1h-2a3 3 0 00-3 3v13a3 3 0 003 3h16a3 3 0 003-3v-13a3 3 0 00-3-3h-2v-1a1 1 0 10-2 0v1h-8v-1zm-5 4a1 1 0 011-1h16a1 1 0 011 1v2H36v-2zm0 4h18v9a1 1 0 01-1 1H37a1 1 0 01-1-1v-9z"/><path d="M14 19.5h.933a2.803 2.803 0 002.8-2.8v-.933h-1.866v.933a.934.934 0 01-.934.934H14V19.5zm-.933-4.666a.933.933 0 100-1.867.933.933 0 000 1.867zm5.6 0a.933.933 0 100-1.867.933.933 0 000 1.867z"/><path d="M.373 47.313l2.427 1.82v5.834a.933.933 0 00.933.933H33.6a.932.932 0 00.66-.273l6.533-6.534a.931.931 0 00.274-.66V33.5a.934.934 0 00-1.253-.877l-8.08 2.939v-.23a7.504 7.504 0 00-3.626-6.402l-6.004-3.603-1.91-2.547a7.46 7.46 0 003.14-6.08v-6.315a2.792 2.792 0 00.933-2.085.933.933 0 00-.099-.417l-.84-1.682a6.54 6.54 0 00-6.528-6.3h-1.867a6.54 6.54 0 00-6.527 6.3l-.84 1.682a.933.933 0 00-.1.417 2.793 2.793 0 00.934 2.085V16.7a7.46 7.46 0 003.14 6.08l-1.91 2.547-6.005 3.603A7.504 7.504 0 000 35.333v11.234a.933.933 0 00.373.746zm4.294 3.22l4.666 3.5H4.667v-3.5zm14 3.5h-6.223l-.75-.563 1.96-3.269 3.773-.754 1.24 1.24v3.346zm-.274-6.26a.934.934 0 00-.843-.255l-4.177.836-.386-.387 5.406-5.407a.932.932 0 00.274-.66v-6.293l10.266 2.369v9.174l-6.023 6.883h-2.377V50.3a.933.933 0 00-.273-.66l-1.867-1.867zm-3.478-16.89a.933.933 0 00-.08-.6l-.676-1.351 1.708-2.276 1.707 2.276-.675 1.35a.933.933 0 00-.08.601l.539 2.697a.926.926 0 00-.558.854v7.08l-.933.933-2.72-2.72 1.768-8.844zM39.2 48.047l-5.987 5.986H25.39l5.18-5.918a.933.933 0 00.23-.615v-9.613l8.4-3.054v13.214zm-9.333-12.714v.907l-.06.022-10.494-2.422-.602-3.009.723-1.445 2.177-2.177 5.537 3.322a5.628 5.628 0 012.719 4.802zm-9.633-9.387l-1.466 1.467-1.968-2.624v-.683a7.4 7.4 0 001.73-.432l1.704 2.272zM9.352 8.484l.558-1.117h11.913l.559 1.117a.935.935 0 01-.915.75h-11.2a.935.935 0 01-.915-.75zM21.372 5.5h-2.705V2.158A4.684 4.684 0 0121.373 5.5zm-8.305-3.342v2.409h1.866v-2.8H16.8V5.5h-6.44a4.684 4.684 0 012.707-3.342zm-2.8 14.542v-5.6h11.2v5.6a5.6 5.6 0 11-11.2 0zm4.666 7.406v.683l-1.967 2.624-1.467-1.467 1.704-2.272a7.4 7.4 0 001.73.432zM1.867 35.333a5.629 5.629 0 012.719-4.802l5.536-3.322 2.178 2.177.722 1.445-1.804 9.02a.934.934 0 00.255.842l3.074 3.074-2.88 2.88L8.4 43.38v-6.147H6.533v6.534a.933.933 0 00.274.66l5.084 5.084-1.7 2.833L1.868 46.1V35.333z"/></g><defs><clipPath id="clip0_88_187"><path fill="#fff" d="M0 0h56v56H0z"/></clipPath></defs></svg>