<svg width="56" height="56" fill="none" xmlns="http://www.w3.org/2000/svg"><g clip-path="url(#clip0_88_200)" fill="#fff"><path d="M6.533 24.762l-1.64.41a.934.934 0 01-.644-.07L.516 23.235a.933.933 0 01-.45-1.182l2.23-5.574-.425-4.253a.933.933 0 01.094-.51l1.867-3.733a.933.933 0 01.703-.507l6.533-.933a.935.935 0 01.248-.002l6.417.802V4.188a4.188 4.188 0 018.16-1.325l.123.366 1.71 1.711a.933.933 0 01-.66 1.593H25.2V8.4a3.71 3.71 0 01-.417 1.711l4.668 3.112c.135.09.244.214.317.36l3.733 7.466c.078.155.11.33.095.502l-.908 9.995 1.676.903 2.31-2.309a.934.934 0 011.122-.15l1.563.893a14.913 14.913 0 016.978 8.899l.231.81c.54.028 1.075.128 1.589.299l1.468.489a4.138 4.138 0 003.18-.226l1.844-.922a.933.933 0 011.351.835v14a.933.933 0 01-.933.933h-33.6a.934.934 0 01-.898-.677l-3.693-12.926-1.764-2.647-1.16 3.478a.935.935 0 01-.146.274L4.473 55.636a.934.934 0 01-.74.364h-2.8a.933.933 0 01-.863-1.289l6.463-15.696V24.762zM2.12 21.95l2.656 1.328 3.399-.85a.934.934 0 01.692.098l2.838 1.637.88-1.32-2.76-1.487a.934.934 0 01-.443-.527l-.832-2.496-.678-.452-.41 3.69a.933.933 0 01-.928.83h-2.8a.933.933 0 01-.928-.84l-.106-1.06-.58 1.45zm27.62 12.618l.98-1.96-16.484-8.877-.911 1.367 16.416 9.47zm-3.487-11.53l-2.563-1.282-2.243 3.738 6.08 3.273-1.274-5.73zm-2.73-11.523a3.73 3.73 0 01-5.693-2.278l-1.03-.13v4.261l3.508 1.404 3.24-3.24-.026-.018zm-2.329 5.013a.934.934 0 01-1.006.206l-4.667-1.866a.934.934 0 01-.587-.867V8.874l-.618-.077-3.174 5.554-.836 3.345.73 2.191 8.766 4.72 2.714-4.524 3.465-6.93-.848-.565-3.939 3.939zM9.152 14.612l-.885-.295-.164 1.474.646.431.403-1.61zM3.756 12.31l.822 8.224h1.12l.806-7.256-1.763-2.939-.985 1.971zm7.452-3.9l-5.018.716 1.9 3.165 1.746.583 2.472-4.327-1.1-.138zM24.54 4.392a.935.935 0 01-.225-.364l-.192-.575a2.321 2.321 0 00-4.523.734v.479h5.213l-.273-.274zm-4.94 2.14V8.4a1.867 1.867 0 003.733 0V6.533H19.6zm8.61 8.106l-.665-.443-2.96 5.92 2.44 1.22 3.487-2.092-2.303-4.605zm3.503 7.008l-.364-.728-3.225 1.935 1.573 7.082 1.204.648.812-8.937zm12.829 18.647a13.056 13.056 0 00-6.109-7.79l-.944-.54-2.296 2.296a.933.933 0 01-1.102.162l-1.727-.93-1.005 2.01 1.774 1.023a.933.933 0 01.44 1.035l-.753 3.007.067.033a13.097 13.097 0 0011.742 0l-.087-.306zm9.591 13.84V42.576l-.493.247a5.993 5.993 0 01-4.606.327l-1.468-.49a4.178 4.178 0 00-3.34.311l-5.246 2.914a4.171 4.171 0 00-1.549 1.498l-.355.593a6.021 6.021 0 01-6.027 2.868 4.185 4.185 0 00-4.055 1.813l-.983 1.475h28.122zm-22.82-5.137a4.158 4.158 0 004.162-1.98l.355-.593a6.041 6.041 0 012.244-2.17l.717-.398h-.032a14.99 14.99 0 01-6.707-1.586l-.736-.369a.933.933 0 01-.488-1.06l.762-3.051-10.27-5.925 2.89 7.95a.92.92 0 01.055.26l.76 12.17.416-.622a6.063 6.063 0 015.873-2.626zM18.51 41.482c.053.08.094.169.12.261l3.54 12.39h1.103l-.863-13.807-3.604-9.912L8.4 24.411v5.86l4.214 2.529c.118.07.22.167.296.282l5.6 8.4zM2.327 54.133h.947L12.23 42.49l1.569-4.707-2.327-3.49L8.4 32.45v6.75a.935.935 0 01-.07.355L2.327 54.133zm49.38-45.534a1 1 0 00-1.414-1.415L45 12.477l-2.293-2.293a1 1 0 10-1.414 1.415l3 3a1 1 0 001.414 0l6-6z"/><path fill-rule="evenodd" clip-rule="evenodd" d="M46.949.154a3 3 0 00-1.898 0l-7 2.333A3 3 0 0036 5.333v7.559c0 3.1 2.03 5.214 4.067 6.552 2.05 1.346 4.31 2.05 5.242 2.304a2.61 2.61 0 001.382 0c.932-.255 3.193-.958 5.242-2.304C53.97 18.106 56 15.991 56 12.892V5.333a3 3 0 00-2.051-2.846l-7-2.333zm-1.265 1.897a1 1 0 01.632 0l7 2.334a1 1 0 01.684.948v7.559c0 2.11-1.362 3.697-3.165 4.88-1.79 1.176-3.816 1.813-4.67 2.046a.61.61 0 01-.33 0c-.854-.233-2.88-.87-4.67-2.046C39.362 16.59 38 15.002 38 12.892V5.333a1 1 0 01.684-.948l7-2.334z"/></g><defs><clipPath id="clip0_88_200"><path fill="#fff" d="M0 0h56v56H0z"/></clipPath></defs></svg>