<svg width="214" height="58" fill="none" xmlns="http://www.w3.org/2000/svg"><path d="M7.92 20.749l-.864 4.377h9.36l-.72 3.63H6.307l-.921 4.665h11.001l-.777 3.744H0l4.032-20.16h15.235l-.777 3.744H7.92zm27.413 6.019c.864.346 1.527.864 1.988 1.555.48.672.72 1.498.72 2.477 0 2.093-.826 3.677-2.477 4.752-1.651 1.075-3.85 1.613-6.596 1.613h-10.57l4.033-20.16h9.734c2.17 0 3.84.403 5.011 1.21 1.172.787 1.757 1.92 1.757 3.398 0 1.229-.326 2.285-.979 3.168-.633.864-1.507 1.526-2.62 1.987zm-8.985-6.25l-.95 4.752h4.751c1.23 0 2.18-.24 2.852-.72.69-.499 1.036-1.21 1.036-2.13 0-1.268-.989-1.902-2.966-1.902h-4.723zm2.909 13.133c1.305 0 2.323-.25 3.052-.749.73-.499 1.095-1.219 1.095-2.16 0-1.382-1.008-2.073-3.024-2.073h-5.645l-.98 4.982h5.502zM51.74 17.005c2.514 0 4.454.557 5.817 1.67 1.382 1.095 2.073 2.63 2.073 4.608 0 1.69-.403 3.168-1.21 4.435-.786 1.248-1.92 2.208-3.398 2.88-1.459.672-3.187 1.008-5.184 1.008h-4.492l-1.095 5.559h-4.694l4.032-20.16h8.15zm-1.7 10.8c1.555 0 2.755-.355 3.6-1.066.845-.71 1.267-1.728 1.267-3.053 0-.96-.326-1.68-.979-2.16-.634-.48-1.555-.72-2.765-.72h-3.657l-1.412 6.999h3.946zm20.259 9.705c-2.017 0-3.764-.364-5.242-1.094-1.479-.73-2.611-1.757-3.399-3.082-.787-1.324-1.18-2.85-1.18-4.579 0-2.285.518-4.339 1.555-6.163 1.056-1.843 2.525-3.293 4.406-4.349 1.901-1.056 4.07-1.584 6.51-1.584 2.015 0 3.762.365 5.24 1.095 1.48.73 2.612 1.756 3.4 3.081.786 1.325 1.18 2.851 1.18 4.58 0 2.284-.528 4.348-1.584 6.191-1.037 1.824-2.506 3.264-4.407 4.32-1.881 1.056-4.041 1.584-6.48 1.584zm.403-3.974c1.478 0 2.774-.355 3.888-1.066a7.068 7.068 0 002.563-2.85c.595-1.191.893-2.506.893-3.946 0-1.536-.48-2.756-1.44-3.658-.96-.922-2.314-1.382-4.061-1.382-1.478 0-2.775.355-3.888 1.065a7.07 7.07 0 00-2.563 2.851c-.595 1.19-.893 2.506-.893 3.946 0 1.536.48 2.765 1.44 3.686.96.903 2.313 1.354 4.06 1.354zm13.84-6.278h8.15l-.72 3.6h-8.15l.72-3.6zm27.845 6.105h2.852l-1.613 7.978h-4.32l.835-4.176H95.914l-.835 4.176h-4.32l1.612-7.978h.605c1.248-.038 2.323-.96 3.226-2.765.922-1.804 1.757-4.29 2.505-7.459l1.469-6.134h15.495l-3.284 16.358zm-9.734-9.446c-.576 2.419-1.142 4.406-1.699 5.961-.557 1.536-1.21 2.698-1.958 3.485h8.783l2.506-12.557h-6.883l-.749 3.11zm24.454 13.593c-2.016 0-3.764-.364-5.242-1.094-1.478-.73-2.611-1.757-3.398-3.082-.788-1.324-1.181-2.85-1.181-4.579 0-2.285.518-4.339 1.555-6.163 1.056-1.843 2.525-3.293 4.406-4.349 1.901-1.056 4.071-1.584 6.509-1.584 2.016 0 3.763.365 5.242 1.095 1.478.73 2.611 1.756 3.398 3.081.787 1.325 1.181 2.851 1.181 4.58 0 2.284-.528 4.348-1.584 6.191-1.037 1.824-2.506 3.264-4.406 4.32-1.882 1.056-4.042 1.584-6.48 1.584zm.403-3.974c1.478 0 2.774-.355 3.888-1.066a7.07 7.07 0 002.563-2.85c.595-1.191.893-2.506.893-3.946 0-1.536-.48-2.756-1.44-3.658-.96-.922-2.314-1.382-4.061-1.382-1.478 0-2.774.355-3.888 1.065a7.064 7.064 0 00-2.563 2.851c-.595 1.19-.893 2.506-.893 3.946 0 1.536.48 2.765 1.44 3.686.96.903 2.314 1.354 4.061 1.354zm24.815-16.531c2.516 0 4.455.557 5.818 1.67 1.382 1.095 2.074 2.63 2.074 4.608 0 1.69-.404 3.168-1.21 4.435-.787 1.248-1.92 2.208-3.398 2.88-1.46.672-3.188 1.008-5.184 1.008h-4.493l-1.095 5.559h-4.694l4.032-20.16h8.15zm-1.699 10.8c1.555 0 2.755-.355 3.6-1.066.845-.71 1.267-1.728 1.267-3.053 0-.96-.326-1.68-.979-2.16-.633-.48-1.555-.72-2.765-.72h-3.657l-1.411 6.999h3.945z" fill="#fff"/><path d="M176.822 3.336a.298.298 0 00-.041.094c-.258 1.042 5.203 2.216 12.245 3.732l2.58.557c12.434 2.706 20.493 5.813 21.263 9.495.88 4.246-5.522 9.627-15.481 17.998-6.185 5.198-14.37 12.079-23.999 21.42l1.142.368c9.493-9.425 17.584-16.366 23.688-21.605 9.849-8.453 16.168-13.875 15.19-18.155-.863-3.71-9.013-6.835-21.538-9.545l-2.587-.554c-7.045-1.507-12.508-2.679-12.272-3.713.229-.965 5.975-1.799 10.324-2.428h-.161c-4.232.603-9.779 1.4-10.353 2.336z" fill="#fff" stroke="#fff"/><path d="M169.098 3.336c-.037.03-.073.06-.106.094-.979 1.042 3.67 2.216 9.668 3.732l2.194.557c10.568 2.706 16.47 5.813 14.707 9.495-2.056 4.246-12.178 9.627-27.926 17.998-9.781 5.198-22.724 12.079-38.807 21.42l.887.368c16.006-9.427 28.896-16.366 38.621-21.605 15.694-8.453 25.759-13.875 27.741-18.155 1.702-3.71-4.286-6.835-14.948-9.545l-2.203-.554c-6.001-1.507-10.657-2.679-9.707-3.713.902-.965 7.218-1.799 12.004-2.428h-.157c-4.648.603-10.748 1.4-11.968 2.336z" fill="#fff" stroke="#fff"/><path d="M173.044 3.452a.312.312 0 00-.037.15c0 .052.012.103.037.15h-.241a.317.317 0 01-.037-.151c0-.053.012-.105.037-.151l.241.002zm.66-.559h.217a3.453 3.453 0 00-.569.27h-.226c.186-.11.381-.203.583-.28l-.005.01zm-.378 1.172c.174.123.36.23.554.32h-.241a3.212 3.212 0 01-.552-.325l.239.005zm2.109-1.664h.196c-.343.077-.656.157-.931.241h-.207c.284-.091.6-.17.947-.25l-.005.01zm-.754 2.317c.294.111.636.224 1.02.345h-.254c-.383-.118-.723-.241-1.019-.345h.253zm2.944-2.758h.18c-.395.07-.771.14-1.116.207h-.188c.335-.067.711-.137 1.124-.207zm-.692 3.45c.422.116.877.241 1.393.369l-.258.017c-.516-.133-.964-.256-1.391-.371l.256-.015zm3.047-3.833h.169c-.417.062-.815.125-1.184.185h-.173c.356-.06.761-.12 1.176-.185h.012zm-6.268 39.214l.831.241a654.25 654.25 0 00-7.806 5.305l-.89-.275a536.948 536.948 0 017.86-5.27h.005zm6.155-34.626l1.688.405-.263.019-1.688-.405.263-.02zm2.478-4.933h.162c-.427.06-.813.113-1.182.169h-.163l1.183-.17zm0 33.922l3.46-2.247.74.164-3.433 2.264-2.054 1.358-.781-.196 2.068-1.343zm1.049-28.158l.581.133 1.37.318-.273.022-1.364-.318-.582-.135.268-.02zm10.946 20.195l.675.113a176.659 176.659 0 01-3.858 2.679l-.706-.138a175.577 175.577 0 003.891-2.654h-.002zM187.394 7.93c.711.17 1.413.347 2.088.523l-.294.024c-.668-.176-1.367-.352-2.074-.523l.28-.024zm12.665 14.854l.619.077a47.546 47.546 0 01-2.507 2.092l-.646-.096a47.609 47.609 0 002.536-2.073h-.002zm-8.475-13.762c.723.205 1.43.414 2.098.622l-.323.024c-.663-.21-1.365-.42-2.081-.622l.306-.024zm11.681 10.215l.569.044c-.372.6-.798 1.164-1.273 1.687l-.593-.06a12.3 12.3 0 001.297-1.67zm-7.515-8.908c.707.24 1.382.503 2.011.756l-.364.02c-.62-.253-1.29-.507-1.987-.755l.34-.021zm3.911 1.596a21.85 21.85 0 011.729.93l-.417.012a20.103 20.103 0 00-1.7-.926l.388-.016zm4.407 5.29c.041-.3.032-.605-.026-.902l.513.016c.065.3.08.608.044.912-.02.167-.052.333-.094.496l-.543-.03c.045-.163.081-.327.106-.493zm-1.205-3.32a6.26 6.26 0 011.099 1.154h-.482a6.267 6.267 0 00-1.066-1.145l.449-.01z" fill="#fff" stroke="#fff"/></svg>