<svg width="24" height="14" fill="none" xmlns="http://www.w3.org/2000/svg"><path d="M19.916 8.028c-.388-.49-.277-.708 0-1.146.005-.005 3.208-4.43 3.538-5.932l.002-.001c.164-.547 0-.949-.793-.949h-2.624c-.668 0-.976.345-1.141.731 0 0-1.336 3.198-3.226 5.271-.61.6-.893.791-1.226.791-.163 0-.418-.192-.418-.739V.95c0-.656-.188-.949-.74-.949H9.16c-.419 0-.668.306-.668.591 0 .622.945.765 1.043 2.515v3.797c0 .832-.15.985-.486.985-.892 0-3.057-3.21-4.34-6.886C4.451.289 4.198.001 3.525.001H.9c-.749 0-.9.345-.9.731 0 .682.892 4.073 4.148 8.553 2.17 3.058 5.226 4.716 8.006 4.716 1.671 0 1.876-.368 1.876-1.002 0-2.922-.151-3.198.686-3.198.388 0 1.056.192 2.616 1.667 1.783 1.75 2.076 2.533 3.074 2.533h2.624c.748 0 1.127-.368.909-1.095-.5-1.527-3.871-4.668-4.023-4.878z" fill="#0C1321"/></svg>